<svg id="Layer_1" enable-background="new 0 0 500 500" viewBox="0 0 500 500" xmlns="http://www.w3.org/2000/svg"><path clip-rule="evenodd" d="m453.131 423.267h-70.693v-27.886c0-15.38 12.511-27.886 27.886-27.886h14.921c15.375 0 27.886 12.506 27.886 27.886zm-35.349-106.916c10.298 0 18.68 8.377 18.68 18.669 0 10.298-8.382 18.675-18.68 18.675-10.293 0-18.669-8.377-18.669-18.675 0-10.293 8.376-18.669 18.669-18.669zm22.625 40.958c5.654-5.737 9.161-13.609 9.161-22.289 0-17.521-14.26-31.775-31.786-31.775-17.521 0-31.78 14.254-31.78 31.775 0 8.679 3.496 16.551 9.161 22.289-15.117 6.046-25.83 20.826-25.83 38.072v29.758c0 6.191 5.043 11.234 11.24 11.234h74.43c6.191 0 11.234-5.043 11.234-11.234v-29.758c-.001-17.246-10.713-32.027-25.83-38.072zm-251.592-280.576h79.557v87.793h-18.35c-2.846-9.845-11.94-17.061-22.687-17.061-10.746 0-19.834 7.216-22.681 17.061h-15.84v-87.793zm123.776 34.178c1.769 2.62 17.203 21.337 17.358 21.779l.017 31.836h-.902c-2.846-9.845-11.934-17.061-22.675-17.061-10.752 0-19.846 7.216-22.692 17.061h-2.219v-53.615zm-6.202 70.677c5.788 0 10.506-4.712 10.506-10.506 0-5.799-4.718-10.511-10.506-10.511-5.805 0-10.511 4.712-10.511 10.511-.001 5.793 4.706 10.506 10.511 10.506zm-79.053 0c5.799 0 10.506-4.712 10.506-10.506 0-5.799-4.706-10.511-10.506-10.511-5.793 0-10.511 4.712-10.511 10.511 0 5.793 4.717 10.506 10.511 10.506zm-40.19-3.956h17.509c2.846 9.844 11.934 17.061 22.681 17.061s19.84-7.217 22.687-17.061h33.674c2.846 9.844 11.94 17.061 22.692 17.061 10.741 0 19.829-7.217 22.675-17.061h7.463c3.621 0 6.557-2.949 6.556-6.555l-.028-40.689c-.011-1.485-.516-2.925-1.44-4.085l-18.512-23.292c-.751-1.289-3.037-5.211-8.057-5.211h-33.567v-22.737c0-6.309-5.138-11.436-11.436-11.436h-82.896c-6.298 0-11.436 5.127-11.436 11.436v91.133c-.001 6.303 5.137 11.436 11.435 11.436zm-66.374 232.855v-28.968c0-4.818-3.759-8.735-8.371-8.735h-23.375c-4.617 0-8.377 3.916-8.377 8.735v28.968h-27.572v-57.061h95.268v57.061zm-13.105 0v-24.597h-13.912v24.597zm-60.798-70.374 54.321-25.824 53.368 25.791v.241h-107.689zm114.133-11.475-56.937-27.516c-1.787-.863-3.866-.868-5.659-.017l-57.918 27.528c-4.146 1.972-6.724 6.057-6.724 10.651v4.796c0 4.051 2.594 7.502 6.208 8.797v64.16c0 3.62 2.936 6.556 6.555 6.556h108.373c3.625 0 6.55-2.936 6.55-6.556v-64.16c3.619-1.295 6.214-4.74 6.214-8.797v-4.819c0-4.566-2.555-8.634-6.662-10.623zm223.666-37.176c0-32.945-12.573-64.171-35.394-87.933-2.499-2.611-2.42-6.757.191-9.267 2.617-2.505 6.757-2.421 9.262.19 25.18 26.211 39.047 60.664 39.047 97.01 0 3.619-2.936 6.55-6.556 6.55-3.614 0-6.55-2.93-6.55-6.55zm-218.752-97.201c2.611 2.51 2.7 6.656.19 9.267-22.821 23.762-35.389 54.988-35.389 87.933 0 3.619-2.931 6.55-6.555 6.55-3.62 0-6.55-2.931-6.55-6.55 0-36.347 13.862-70.799 39.042-97.01 2.51-2.61 6.656-2.694 9.262-.19zm160.817 211.704c1.72 3.182.527 7.155-2.656 8.875-41.2 22.241-91.571 22.259-132.774 0-3.177-1.72-4.365-5.693-2.656-8.875 1.72-3.188 5.687-4.382 8.875-2.662 37.393 20.165 82.94 20.167 120.336 0 3.188-1.719 7.155-.526 8.875 2.662zm5.171-108.39-12.511 4.068c-2.129.689-3.754 2.426-4.314 4.6-1.378 5.373-3.518 10.534-6.359 15.335-1.149 1.928-1.221 4.309-.202 6.309l5.978 11.721-8.651 8.651-11.727-5.973c-2-1.02-4.376-.947-6.315.196-4.79 2.841-9.951 4.981-15.335 6.359-2.168.56-3.905 2.191-4.594 4.326l-4.074 12.506h-12.22l-4.062-12.506c-.7-2.135-2.432-3.765-4.606-4.32-5.373-1.384-10.534-3.524-15.335-6.365-1.927-1.143-4.314-1.216-6.315-.196l-11.721 5.973-8.646-8.651 5.967-11.721c1.026-2 .947-4.382-.19-6.309-2.841-4.796-4.981-9.957-6.359-15.335-.56-2.174-2.191-3.911-4.326-4.6l-12.5-4.068v-12.226l12.5-4.068c2.135-.695 3.765-2.426 4.326-4.6 1.378-5.379 3.519-10.539 6.359-15.335 1.138-1.933 1.216-4.309.19-6.309l-5.967-11.727 8.646-8.646 11.721 5.973c2 1.014 4.376.941 6.315-.202 4.802-2.841 9.957-4.981 15.335-6.359 2.174-.555 3.905-2.185 4.606-4.32l4.062-12.506h12.22l4.074 12.506c.689 2.135 2.426 3.765 4.594 4.32 5.385 1.378 10.539 3.519 15.335 6.359 1.928 1.143 4.314 1.221 6.315.202l11.727-5.973 8.651 8.646-5.978 11.727c-1.02 2-.947 4.376.202 6.309 2.83 4.796 4.97 9.956 6.359 15.335.549 2.174 2.185 3.905 4.314 4.6l12.511 4.068zm8.573-23.219-13.705-4.46c-1.306-4.146-2.975-8.169-4.992-12.024l6.55-12.853c1.289-2.533.796-5.603-1.205-7.609l-15.38-15.38c-2.011-2.006-5.082-2.493-7.615-1.205l-12.847 6.55c-3.855-2.028-7.883-3.698-12.024-4.987l-4.455-13.716c-.885-2.701-3.401-4.527-6.242-4.527h-21.745c-2.841 0-5.357 1.826-6.236 4.527l-4.449 13.711c-4.152 1.294-8.175 2.964-12.03 4.992l-12.853-6.55c-2.533-1.289-5.597-.801-7.609 1.205l-15.375 15.38c-2.011 2.006-2.499 5.076-1.21 7.609l6.544 12.853c-2.023 3.855-3.687 7.878-4.975 12.024l-13.722 4.46c-2.695.874-4.521 3.39-4.521 6.231v21.751c0 2.835 1.826 5.357 4.521 6.231l13.711 4.46c1.3 4.146 2.97 8.169 4.987 12.024l-6.544 12.853c-1.289 2.527-.801 5.598 1.21 7.609l15.375 15.38c2.011 2.006 5.076 2.493 7.609 1.205l12.853-6.55c3.855 2.028 7.878 3.692 12.03 4.987l4.449 13.716c.88 2.695 3.395 4.527 6.236 4.527h21.745c2.841 0 5.357-1.832 6.242-4.527l4.455-13.716c4.141-1.295 8.169-2.964 12.024-4.987l12.847 6.55c2.533 1.289 5.603.801 7.615-1.205l15.38-15.38c2-2.011 2.493-5.082 1.205-7.609l-6.55-12.853c2.028-3.855 3.698-7.878 4.992-12.03l13.705-4.454c2.701-.874 4.533-3.395 4.533-6.231v-21.751c-.001-2.841-1.833-5.357-4.534-6.231zm-82.784 51.464c18.944 0 34.358-15.414 34.358-34.358 0-18.949-15.414-34.358-34.358-34.358-18.949 0-34.358 15.408-34.358 34.358 0 18.944 15.409 34.358 34.358 34.358zm0-81.821c-26.172 0-47.463 21.291-47.463 47.463s21.291 47.463 47.463 47.463c26.166 0 47.463-21.291 47.463-47.463 0-26.171-21.297-47.463-47.463-47.463z" fill-rule="evenodd"/></svg>